<?xml version="1.0" encoding="utf-8"?>
<!-- Generator: Adobe Illustrator 15.1.0, SVG Export Plug-In . SVG Version: 6.00 Build 0)  -->
<!DOCTYPE svg PUBLIC "-//W3C//DTD SVG 1.1//EN" "http://www.w3.org/Graphics/SVG/1.1/DTD/svg11.dtd">
<svg version="1.1" id="Layer_1" xmlns="http://www.w3.org/2000/svg" xmlns:xlink="http://www.w3.org/1999/xlink" x="0px" y="0px"
	 width="28.007px" height="28.08px" viewBox="0 0 28.007 28.08" enable-background="new 0 0 28.007 28.08" xml:space="preserve">
<path fill-rule="evenodd" clip-rule="evenodd" fill="#FFFFFF" d="M14.048-0.008C6.29-0.008,0,6.281,0,14.04
	s6.29,14.049,14.048,14.049s14.048-6.29,14.048-14.049S21.807-0.008,14.048-0.008z M6.461,8h15.173c0.102,0,0.198,0.131,0.291,0.158
	l-5.646,4.889l-0.75,0.637l-1.481,1.219l-1.477-1.195l-0.75-0.607l-5.65-4.945C6.264,8.129,6.36,8,6.461,8z M5,18.826V9.254
	c0-0.109,0.236-0.213,0.269-0.312l5.733,4.816L5.22,19.154C5.185,19.051,5,18.941,5,18.826z M21.634,20H6.461
	c-0.097,0-0.189-0.089-0.278-0.114l5.675-5.482l2.189,1.764l2.193-1.793l5.673,5.516C21.824,19.916,21.731,20,21.634,20z M23,18.826
	c0,0.115-0.19,0.225-0.226,0.329l-5.701-5.398l5.748-4.814C22.853,9.041,23,9.145,23,9.254V18.826z"/>
</svg>
