<?xml version="1.0" encoding="utf-8"?>
<!-- Generator: Adobe Illustrator 15.1.0, SVG Export Plug-In . SVG Version: 6.00 Build 0)  -->
<!DOCTYPE svg PUBLIC "-//W3C//DTD SVG 1.1//EN" "http://www.w3.org/Graphics/SVG/1.1/DTD/svg11.dtd">
<svg version="1.1" id="Layer_1" xmlns="http://www.w3.org/2000/svg" xmlns:xlink="http://www.w3.org/1999/xlink" x="0px" y="0px"
	 width="28.007px" height="28.08px" viewBox="0 0 28.007 28.08" enable-background="new 0 0 28.007 28.08" xml:space="preserve">
<g>
	<path fill-rule="evenodd" clip-rule="evenodd" fill="#FFFFFF" d="M19.854,7.188c-3.792-3.3-8.181-1.9-8.181-1.9
		s2.199,2.276,3.407,4.997C15.08,10.285,17.809,9.267,19.854,7.188z"/>
	<path fill-rule="evenodd" clip-rule="evenodd" fill="#FFFFFF" d="M9.894,5.961c-4.104,2.117-4.759,6.166-4.759,6.166
		c4.816-0.125,8.164-1.213,8.164-1.213S12.136,8.661,9.894,5.961z"/>
	<path fill-rule="evenodd" clip-rule="evenodd" fill="#FFFFFF" d="M14.778,13.958l-0.731-1.611c0,0-2.94,1.13-9.098,1.324
		c0,0.017-0.305,3.388,2.142,6.223C10.507,14.737,14.778,13.958,14.778,13.958z"/>
	<path fill-rule="evenodd" clip-rule="evenodd" fill="#FFFFFF" d="M16.574,13.562c2.804-0.537,6.393-0.03,6.393-0.017
		c-0.167-3.248-2.02-5.24-2.02-5.24s-1.878,2.166-5.152,3.427C16.068,12.322,16.325,12.936,16.574,13.562z"/>
	<path fill-rule="evenodd" clip-rule="evenodd" fill="#FFFFFF" d="M13.959-0.017c-7.76,0-14.049,6.289-14.049,14.048
		S6.199,28.08,13.959,28.08c7.758,0,14.048-6.29,14.048-14.049S21.717-0.017,13.959-0.017z M13.959,24.991
		c-6.041,0-10.938-4.907-10.938-10.96s4.897-10.96,10.938-10.96s10.937,4.907,10.937,10.96S20,24.991,13.959,24.991z"/>
	<path fill-rule="evenodd" clip-rule="evenodd" fill="#FFFFFF" d="M17.168,15.141c0,0,1.184,3.127,1.752,6.445
		c0,0,3.404-1.882,3.994-6.405C19.893,14.69,17.168,15.141,17.168,15.141z"/>
	<path fill-rule="evenodd" clip-rule="evenodd" fill="#FFFFFF" d="M8.42,21.164c4.352,3.304,8.777,1.304,8.777,1.304
		s-0.779-4.575-1.797-6.933C10.89,16.794,8.427,21.164,8.42,21.164z"/>
</g>
</svg>
