<?xml version="1.0" encoding="utf-8"?>
<!-- Generator: Adobe Illustrator 15.1.0, SVG Export Plug-In . SVG Version: 6.00 Build 0)  -->
<!DOCTYPE svg PUBLIC "-//W3C//DTD SVG 1.1//EN" "http://www.w3.org/Graphics/SVG/1.1/DTD/svg11.dtd">
<svg version="1.1" id="Layer_1" xmlns="http://www.w3.org/2000/svg" xmlns:xlink="http://www.w3.org/1999/xlink" x="0px" y="0px"
	 width="28.007px" height="28.08px" viewBox="0 0 28.007 28.08" enable-background="new 0 0 28.007 28.08" xml:space="preserve">
<path fill-rule="evenodd" clip-rule="evenodd" fill="#FFFFFF" d="M14.003-0.008c-7.759,0-14.048,6.289-14.048,14.048
	s6.29,14.049,14.048,14.049s14.049-6.29,14.049-14.049S21.762-0.008,14.003-0.008z M20.315,11.432
	c0.007,0.135,0.011,0.263,0.011,0.396c0,4.017-3.058,8.648-8.656,8.648c-1.716,0-3.317-0.5-4.662-1.361
	c0.239,0.022,0.481,0.04,0.727,0.04c1.426,0,2.738-0.485,3.778-1.306c-1.329-0.02-2.452-0.901-2.839-2.105
	c0.185,0.033,0.374,0.051,0.568,0.051c0.279,0,0.747-0.037,1.002-0.104C8.852,15.409,8,14.18,8,12.707c0-0.013,0-0.022,0-0.039
	c0,0.228,0.683,0.365,1.181,0.383c-0.817-0.545-1.452-1.477-1.452-2.533c0-0.556,0.103-1.079,0.365-1.53
	c1.497,1.844,3.712,3.051,6.242,3.182c-0.055-0.225-0.09-0.457-0.09-0.695c0-1.68,1.353-3.038,3.035-3.038
	c0.871,0,1.658,0.366,2.213,0.959c0.693-0.135,1.344-0.391,1.93-0.741c-0.225,0.714-0.707,1.309-1.335,1.684
	c0.615-0.071,1.204-0.236,1.745-0.479C21.425,10.47,20.907,11.004,20.315,11.432z"/>
</svg>
