<?xml version="1.0" encoding="utf-8"?>
<!-- Generator: Adobe Illustrator 17.0.0, SVG Export Plug-In . SVG Version: 6.00 Build 0)  -->
<!DOCTYPE svg PUBLIC "-//W3C//DTD SVG 1.1//EN" "http://www.w3.org/Graphics/SVG/1.1/DTD/svg11.dtd">
<svg version="1.1" id="Layer_1" xmlns="http://www.w3.org/2000/svg" xmlns:xlink="http://www.w3.org/1999/xlink" x="0px" y="0px"
	 width="79.444px" height="53.255px" viewBox="0 0 79.444 53.255" enable-background="new 0 0 79.444 53.255" xml:space="preserve">
<g>
	<g>
		<rect x="0.5" y="0.5" fill="#FFFFFF" width="78.444" height="52.255"/>
		<path fill="#E6E6E6" d="M79.443,53.255H0V0h79.443V53.255z M1,52.255h77.443V1H1V52.255z"/>
	</g>
	<rect x="0.497" y="7.758" fill="#0BB2DD" width="78.459" height="7.038"/>
	<rect x="0.497" y="38.605" fill="#0BB2DD" width="78.457" height="7.038"/>
	<polygon fill="#D6382A" points="47.883,21.011 48.831,24.947 52.58,23.834 49.782,26.655 52.58,29.481 48.831,28.369 
		47.883,32.301 46.933,28.369 43.182,29.481 45.982,26.655 43.182,23.834 46.933,24.947 	"/>
	<polygon fill="#D6382A" points="31.652,21.062 32.601,24.998 36.351,23.887 33.55,26.708 36.351,29.53 32.601,28.422 
		31.652,32.356 30.7,28.422 26.952,29.53 29.752,26.708 26.952,23.887 30.7,24.998 	"/>
	<polygon fill="#D6382A" points="64.1,20.95 65.049,24.886 68.798,23.773 66,26.595 68.798,29.421 65.049,28.308 64.1,32.241 
		63.151,28.308 59.4,29.421 62.199,26.595 59.4,23.773 63.151,24.886 	"/>
	<polygon fill="#D6382A" points="15.407,21.101 16.357,25.036 20.106,23.925 17.305,26.747 20.106,29.568 16.357,28.46 
		15.407,32.394 14.456,28.46 10.708,29.568 13.507,26.747 10.708,23.925 14.456,25.036 	"/>
</g>
</svg>
